<svg id="Iconly_Light-Outline_Work" data-name="Iconly/Light-Outline/Work" xmlns="http://www.w3.org/2000/svg" width="23.553" height="23.258" viewBox="0 0 23.553 23.258">
  <g id="Work">
    <path id="Combined-Shape" d="M22.708,15a.884.884,0,0,1,.814.948L23.3,18.91a4.723,4.723,0,0,1-4.688,4.349H4.942A4.723,4.723,0,0,1,.254,18.91L.03,15.953A.885.885,0,0,1,.846,15a.9.9,0,0,1,.948.815l.223,2.955a2.949,2.949,0,0,0,2.926,2.716H18.61a2.948,2.948,0,0,0,2.926-2.716l.224-2.955A.9.9,0,0,1,22.708,15ZM13.3,0a3.493,3.493,0,0,1,3.459,3.039h2.321a4.488,4.488,0,0,1,4.477,4.49v4.052a.883.883,0,0,1-.437.762A22.455,22.455,0,0,1,12.66,15.173v2.119a.884.884,0,1,1-1.767,0V15.174A22.439,22.439,0,0,1,.437,12.344.881.881,0,0,1,0,11.582V7.518A4.489,4.489,0,0,1,4.489,3.04H6.8A3.493,3.493,0,0,1,10.257,0Zm5.779,4.807H4.489A2.719,2.719,0,0,0,1.768,7.518v3.549a21.226,21.226,0,0,0,9.993,2.354l.016,0h.013l.561-.006a21.047,21.047,0,0,0,9.435-2.347V7.53A2.718,2.718,0,0,0,19.076,4.807ZM13.3,1.767h-3.04A1.723,1.723,0,0,0,8.6,3.039h6.362A1.723,1.723,0,0,0,13.3,1.767Z" transform="translate(0 0)" fill="#a5b4cb" fill-rule="evenodd"/>
  </g>
</svg>
