<svg id="_Group_" data-name="&lt;Group&gt;" xmlns="http://www.w3.org/2000/svg" width="21.767" height="26.296" viewBox="0 0 21.767 26.296">
  <path id="_Compound_Path_" data-name="&lt;Compound Path&gt;" d="M79.175,18H60.591A1.565,1.565,0,0,0,59,19.514V41.926c0,.007.012.015.012.023A2.411,2.411,0,0,0,61.469,44.3H77.824a1.538,1.538,0,0,0,1.561-1.514v-2.09a1.552,1.552,0,0,0,1.381-1.5V19.514A1.564,1.564,0,0,0,79.175,18ZM78.28,42.783a.434.434,0,0,1-.457.409H61.469a1.3,1.3,0,0,1-1.34-1.242v-.017a1.3,1.3,0,0,1,1.34-1.227H78.28Zm1.381-3.59a.461.461,0,0,1-.486.408H61.469a2.6,2.6,0,0,0-1.365.386V19.514a.462.462,0,0,1,.486-.409H79.175a.462.462,0,0,1,.486.409Z" transform="translate(-59 -18)" fill="#a5b4cb"/>
  <path id="_Compound_Path_2" data-name="&lt;Compound Path&gt;" d="M139.6,67.663l.382-7.779a1.548,1.548,0,0,0-.432-1.152,1.682,1.682,0,0,0-2.419,0,1.547,1.547,0,0,0-.432,1.152l.382,7.779a3.266,3.266,0,0,0-1.04.923,4.936,4.936,0,0,0,0,5.624,2.74,2.74,0,0,0,4.6,0,4.936,4.936,0,0,0,0-5.624A3.267,3.267,0,0,0,139.6,67.663Zm-1.8-7.833a.452.452,0,0,1,.129-.336.578.578,0,0,1,.818,0,.452.452,0,0,1,.129.336l-.369,7.513q-.084-.005-.169-.006c-.057,0-.113,0-.169.006Zm1.953,13.719a1.643,1.643,0,0,1-2.829,0,3.837,3.837,0,0,1,0-4.3,1.643,1.643,0,0,1,2.829,0,3.837,3.837,0,0,1,0,4.3ZM148.4,58.966a1,1,0,0,0-1.992-.041c0,.005,0,.011,0,.016l-.059.947-.059-.947c0-.005,0-.023,0-.029a1.01,1.01,0,0,0-1-.912h0c-.005,0-.01.013-.015.013a1,1,0,0,0-.985.906c0,.005,0,.014,0,.019l-.059.949-.059-.947c0-.005,0-.01,0-.015a.992.992,0,0,0-.985-.9h-.016a.986.986,0,0,0-.991.944l-.106,3.424v.017a4.391,4.391,0,0,0,1.951,3.767l-.374,7.617a1.547,1.547,0,0,0,.432,1.152,1.682,1.682,0,0,0,2.419,0,1.547,1.547,0,0,0,.432-1.152l-.374-7.618a4.391,4.391,0,0,0,1.951-3.766v-.017Zm-2.7,15.219a.578.578,0,0,1-.818,0,.452.452,0,0,1-.129-.336l.36-7.331c.059,0,.119.007.179.007s.118,0,.177-.007l.36,7.331A.453.453,0,0,1,145.7,74.184Zm.085-8.859a1.341,1.341,0,0,1-.992,0,3.19,3.19,0,0,1-1.616-2.905l.034-1.115.043.7a.556.556,0,0,0,.551.523h.848a.556.556,0,0,0,.551-.523l.085-1.369.085,1.37a.555.555,0,0,0,.551.521h.848a.556.556,0,0,0,.551-.523l.043-.7.034,1.11A3.187,3.187,0,0,1,145.786,65.325Z" transform="translate(-130.951 -55.79)" fill="#a5b4cb"/>
</svg>
