<svg id="Activity" xmlns="http://www.w3.org/2000/svg" width="24" height="24" viewBox="0 0 24 24">
  <rect id="Activity-2" data-name="Activity" width="24" height="24" fill="rgba(0,0,0,0)"/>
  <g id="Activity-3" data-name="Activity" transform="translate(2 2)">
    <path id="Vector" d="M12.5.813a.724.724,0,0,1,.1,1.442l-.1.007H5.454a3.824,3.824,0,0,0-4,4.02l0,.225v7.808c0,2.514,1.438,4.138,3.785,4.232l.216,0h8.337a3.817,3.817,0,0,0,4-4.011l0-.225v-6.8a.727.727,0,0,1,1.447-.1l.007.1v6.8c0,3.275-2.074,5.576-5.227,5.681l-.227,0H5.454A5.243,5.243,0,0,1,0,14.548l0-.233V6.507C0,3.231,2.075.923,5.227.817l.227,0Zm2.051,6.6a.723.723,0,0,1,.189.927l-.06.089L11.838,12.08a.728.728,0,0,1-.934.186l-.09-.06L8.083,10.067,5.631,13.245a.728.728,0,0,1-.929.191l-.09-.059a.723.723,0,0,1-.192-.926l.059-.09L7.38,8.6a.728.728,0,0,1,.935-.188l.09.06,2.732,2.14L13.528,7.54A.728.728,0,0,1,14.547,7.411ZM17.411,0a2.581,2.581,0,1,1-2.589,2.581A2.585,2.585,0,0,1,17.411,0Zm0,1.449a1.132,1.132,0,1,0,1.136,1.132A1.134,1.134,0,0,0,17.411,1.449Z" fill="#a5b4cb"/>
  </g>
</svg>
