<svg xmlns="http://www.w3.org/2000/svg" xmlns:xlink="http://www.w3.org/1999/xlink" width="21.451" height="15.628" viewBox="0 0 21.451 15.628">
  <defs>
    <clipPath id="clip-path">
      <rect id="Rectangle_18529" data-name="Rectangle 18529" width="21.451" height="15.628" transform="translate(0 0)" fill="#a5b4cb"/>
    </clipPath>
  </defs>
  <g id="Group_42513" data-name="Group 42513" transform="translate(0 -0.001)">
    <g id="Group_42513-2" data-name="Group 42513" transform="translate(0 0.001)" clip-path="url(#clip-path)">
      <path id="Path_62351" data-name="Path 62351" d="M10.728,0h8.456a2.25,2.25,0,0,1,2.158,1.554,2.49,2.49,0,0,1,.11.786q0,5.383,0,10.767c0,.1,0,.2,0,.3a2.189,2.189,0,0,1-.658,1.56,2.221,2.221,0,0,1-1.584.662c-.06,0-.119,0-.179,0H2.284A2.239,2.239,0,0,1,.093,14.009a2.206,2.206,0,0,1-.089-.6Q0,7.815,0,2.217a2.232,2.232,0,0,1,2-2.2C2.113.007,2.228,0,2.343,0h8.385M1.438,3.442c0,.045-.007.083-.007.122q0,4.894,0,9.789a.842.842,0,0,0,.853.846q8.443-.006,16.886,0a1.066,1.066,0,0,0,.166-.01.834.834,0,0,0,.689-.843q-.008-4.888,0-9.777c0-.042-.005-.083-.008-.124Zm16.967-.53.52-.512-.568-.552.554-.557L18.4.78l-.554.563L17.3.794l-.516.516.568.544-.549.553.508.512.547-.563.549.557m-4.528.011h1.856V2.373H13.878Z" transform="translate(0 0)" fill="#a5b4cb"/>
      <path id="Path_62352" data-name="Path 62352" d="M378.051,322.06l.295-.9c.03-.09.061-.18.088-.271.013-.042.031-.069.081-.069.194,0,.388,0,.594,0-.011.046-.016.08-.027.112-.23.7-.462,1.408-.689,2.114-.027.084-.064.122-.157.117-.154-.008-.309,0-.476,0l-.433-1.253c-.022.057-.036.088-.047.12-.119.345-.24.689-.354,1.035a.122.122,0,0,1-.143.1c-.134-.008-.27,0-.4,0a.092.092,0,0,1-.106-.07q-.361-1.114-.725-2.227a.231.231,0,0,1,0-.045h.158c.127,0,.254.006.381,0a.122.122,0,0,1,.143.1c.109.344.223.686.335,1.029.01.029.021.058.039.108l.246-.715c.05-.146.1-.292.15-.439a.1.1,0,0,1,.119-.087c.135.005.27.006.4,0a.119.119,0,0,1,.135.1c.112.335.227.668.342,1,.014.04.03.08.053.141" transform="translate(-366.6 -313.176)" fill="#a5b4cb"/>
      <path id="Path_62353" data-name="Path 62353" d="M542.584,322.063c.022-.057.037-.091.049-.127.115-.334.233-.666.343-1a.122.122,0,0,1,.144-.1c.119.007.238,0,.357,0s.126,0,.166.116l.352,1.024c.009.026.019.051.038.1l.406-1.236h.654c-.013.049-.022.09-.035.13-.228.7-.458,1.394-.683,2.092-.028.085-.066.121-.158.115a2.884,2.884,0,0,0-.369,0c-.084.006-.118-.026-.143-.1-.117-.354-.24-.706-.361-1.058-.009-.026-.019-.052-.036-.1-.022.059-.038.1-.053.144-.116.337-.235.674-.346,1.013a.122.122,0,0,1-.143.1,3.332,3.332,0,0,0-.381,0c-.084,0-.117-.029-.141-.105-.21-.653-.425-1.3-.638-1.956-.028-.086-.055-.173-.087-.27.041,0,.07-.01.1-.01h.429c.128,0,.128,0,.17.127l.319.972c.012.036.026.071.047.13" transform="translate(-528.62 -313.189)" fill="#a5b4cb"/>
      <path id="Path_62354" data-name="Path 62354" d="M210.589,321.9l-.433,1.253c-.184,0-.358,0-.532,0-.074,0-.079-.055-.094-.1q-.2-.621-.407-1.243l-.273-.837c-.015-.045-.028-.09-.045-.146a.821.821,0,0,1,.1-.013c.147,0,.294.006.44,0,.094-.005.13.032.157.117.11.352.228.7.343,1.052l.022.065c.019-.044.033-.073.044-.1.118-.341.238-.681.35-1.024a.129.129,0,0,1,.152-.107,3.186,3.186,0,0,0,.369,0,.122.122,0,0,1,.144.1c.11.335.228.668.344,1a.273.273,0,0,0,.061.107l.4-1.2h.649a.8.8,0,0,1-.018.092c-.232.712-.467,1.424-.7,2.137a.129.129,0,0,1-.151.109,2.862,2.862,0,0,0-.369,0c-.089.006-.124-.031-.151-.11-.112-.339-.229-.676-.345-1.013-.014-.04-.031-.079-.053-.134" transform="translate(-203.831 -313.166)" fill="#a5b4cb"/>
    </g>
  </g>
</svg>
