<svg id="Group_42512" data-name="Group 42512" xmlns="http://www.w3.org/2000/svg" width="23.97" height="18.485" viewBox="0 0 23.97 18.485">
  <g id="Iconly_Light-Outline_3-User" data-name="Iconly/Light-Outline/3-User" transform="translate(0 0)">
    <g id="_3-User" data-name="3-User">
      <path id="Combined-Shape" d="M11.986,11.465h.4c2.125.014,6.983.229,6.983,3.521,0,3.271-4.688,3.484-6.95,3.5h-.838C9.458,18.471,4.6,18.256,4.6,14.968s4.858-3.488,6.984-3.5h.4Zm0,1.651c-2.616,0-5.735.321-5.735,1.852,0,1.5,2.933,1.845,5.5,1.865h.239c2.616,0,5.734-.32,5.734-1.847C17.719,13.441,14.6,13.117,11.986,13.117Zm8.756-2.1c2.668.4,3.228,1.653,3.228,2.633a2.417,2.417,0,0,1-1.81,2.292.835.835,0,0,1-.294.054.826.826,0,0,1-.294-1.6c.746-.284.746-.6.746-.749,0-.482-.613-.819-1.822-1a.826.826,0,1,1,.246-1.634Zm-16.574.694a.828.828,0,0,1-.695.94c-1.209.181-1.822.517-1.822,1,0,.151,0,.463.748.749A.826.826,0,0,1,2.105,16a.835.835,0,0,1-.294-.054A2.419,2.419,0,0,1,0,13.652c0-.98.56-2.234,3.229-2.633A.831.831,0,0,1,4.168,11.712ZM11.986,0a5.03,5.03,0,1,1,0,10.06h-.03a5.014,5.014,0,0,1-5-5.033A5.035,5.035,0,0,1,11.986,0Zm0,1.651A3.382,3.382,0,0,0,8.608,5.03a3.362,3.362,0,0,0,3.35,3.379l.028.826V8.409a3.379,3.379,0,1,0,0-6.758ZM18.8,1.078a3.987,3.987,0,0,1-.094,7.883.811.811,0,0,1-.114.008.826.826,0,0,1-.113-1.644,2.335,2.335,0,0,0,.053-4.617A.826.826,0,1,1,18.8,1.078Zm-12.678.68a.826.826,0,0,1-.68.949,2.335,2.335,0,0,0,.052,4.617.826.826,0,0,1-.113,1.644.811.811,0,0,1-.114-.008,3.987,3.987,0,0,1-.092-7.883A.821.821,0,0,1,6.121,1.759Z" transform="translate(0 0)" fill="#a5b4cb" fill-rule="evenodd"/>
    </g>
  </g>
</svg>
