<svg id="Group_42461" data-name="Group 42461" xmlns="http://www.w3.org/2000/svg" xmlns:xlink="http://www.w3.org/1999/xlink" width="45.067" height="43.397" viewBox="0 0 45.067 43.397">
  <defs>
    <clipPath id="clip-path">
      <rect id="Rectangle_18522" data-name="Rectangle 18522" width="45.067" height="43.397" fill="#033362"/>
    </clipPath>
  </defs>
  <g id="Group_42461-2" data-name="Group 42461" clip-path="url(#clip-path)">
    <path id="Path_62325" data-name="Path 62325" d="M44.381,81.184a4.405,4.405,0,0,0-1.761-.014c-1.7,22.875-33.245,25.881-39.232,3.774.6.139,1.388.29,2,.4a15.231,15.231,0,0,1-3.459-4.531C1.28,82.341.91,84.132,0,85.481l.257.324,1.312-.675a21.854,21.854,0,0,0,23.554,16.637C35.4,100.8,44.2,91.592,44.381,81.184" transform="translate(0 -58.526)" fill="#033362"/>
    <path id="Path_62326" data-name="Path 62326" d="M48,14.7a6.6,6.6,0,0,0-1.5.764C39.327-7.179,6.964-4.185,4.086,19.39c.463-.014,1.764.535,1.832-.183A19.784,19.784,0,0,1,9.59,9.918C19.055-3.275,40.032.242,44.7,15.758c-.155-.023-1.167-.2-1.3-.188l-.183.383a14.538,14.538,0,0,1,3.189,3.855c.557-1.52.749-3.328,1.619-4.656Z" transform="translate(-2.959 0)" fill="#033362"/>
    <path id="Path_62327" data-name="Path 62327" d="M32.24,52.822c3.017,1.914,10.881,4.468,14.226,5.85,2.29-.721,4.475-1.844,6.724-2.71.643-.474,7.82-2.768,7.679-3.536-.1-.175.366-15.6-.407-15.076-17.815-6.913-9.92-7-27.7-.243-1.174.03-.37,6.444-.593,7.086v8.272a.888.888,0,0,0,.067.357m1.7-.936V39.241l11.641,4.606V56.491L33.943,51.886M53.278,39.7c-.19.072-.38.144-.568.218-2.8-1.115-8.256-3.265-11.124-4.4.5-.2,4.481-1.773,4.883-1.93l11.1,4.473Zm-1.781.669.015.006-4.724,1.8c-.1.039-.2.078-.32.12-.573-.237-10.157-4.019-11.013-4.359.205-.082,4.9-1.935,4.95-1.958C41.08,36.256,50.556,40,51.5,40.371m7.6-1.005v12.2c-1.8.743-10.022,4.179-11.746,4.91V43.855q.391-.148.782-.3Zm.276,12.285h0" transform="translate(-23.254 -23.248)" fill="#033362"/>
  </g>
</svg>
