<svg xmlns="http://www.w3.org/2000/svg" width="44.5" height="34.432" viewBox="0 0 44.5 34.432">
  <g id="Group_42469" data-name="Group 42469" transform="translate(0.25 0.25)">
    <g id="Iconly_Light-Outline_3-User" data-name="Iconly/Light-Outline/3-User" transform="translate(0 0)">
      <g id="_3-User" data-name="3-User">
        <path id="Combined-Shape" d="M22,21.046h.228l.51,0c3.9.026,12.818.42,12.818,6.463,0,6-8.605,6.4-12.757,6.421H21.262c-3.9-.026-12.82-.419-12.82-6.455,0-6.011,8.918-6.4,12.82-6.429l.51,0Zm0,3.031c-4.8,0-10.527.59-10.527,3.4,0,2.745,5.384,3.387,10.088,3.424l.439,0c4.8,0,10.525-.588,10.525-3.391C32.526,24.673,26.8,24.077,22,24.077Zm16.074-3.851c4.9.734,5.925,3.033,5.925,4.834,0,1.1-.432,3.106-3.322,4.208a1.533,1.533,0,0,1-.54.1,1.516,1.516,0,0,1-.54-2.932c1.37-.521,1.37-1.1,1.37-1.374,0-.885-1.126-1.5-3.345-1.835a1.516,1.516,0,1,1,.451-3ZM7.651,21.5a1.519,1.519,0,0,1-1.275,1.726c-2.219.331-3.345.95-3.345,1.835,0,.277,0,.851,1.372,1.374a1.516,1.516,0,0,1-.54,2.932,1.533,1.533,0,0,1-.54-.1C.433,28.164,0,26.157,0,25.06c0-1.8,1.029-4.1,5.927-4.834A1.526,1.526,0,0,1,7.651,21.5ZM22,0a9.234,9.234,0,1,1,0,18.467h-.055a9.2,9.2,0,0,1-9.177-9.24A9.242,9.242,0,0,1,22,0Zm0,3.031a6.208,6.208,0,0,0-6.2,6.2,6.172,6.172,0,0,0,6.15,6.2L22,16.951V15.436a6.2,6.2,0,1,0,0-12.4ZM34.509,1.979a7.318,7.318,0,0,1-.172,14.47,1.489,1.489,0,0,1-.21.014,1.516,1.516,0,0,1-.208-3.017,4.287,4.287,0,0,0,.1-8.476,1.516,1.516,0,1,1,.493-2.991ZM11.236,3.228A1.517,1.517,0,0,1,9.987,4.97a4.287,4.287,0,0,0,.095,8.476,1.516,1.516,0,0,1-.208,3.017,1.489,1.489,0,0,1-.21-.014,7.319,7.319,0,0,1-.17-14.47A1.508,1.508,0,0,1,11.236,3.228Z" transform="translate(0 0)" fill="#033362" stroke="#fff" stroke-width="0.5" fill-rule="evenodd"/>
      </g>
    </g>
  </g>
</svg>
