<svg id="Group_42275" data-name="Group 42275" xmlns="http://www.w3.org/2000/svg" width="45.067" height="40.609" viewBox="0 0 45.067 40.609">
  <path id="Path_62283" data-name="Path 62283" d="M56.16,37.378c-1.253.723-2.352,1.427-3.513,2.005a1.8,1.8,0,0,0-1.086,1.92c.061,2.577-.01,5.157.038,7.735a1.751,1.751,0,0,1-1.019,1.828c-5.359,2.912-10.676,5.9-16.044,8.8a2.219,2.219,0,0,1-1.811,0c-5.368-2.9-10.685-5.885-16.044-8.8a1.752,1.752,0,0,1-1.018-1.829c.047-2.623-.014-5.247.035-7.87a1.619,1.619,0,0,0-.969-1.712c-1.2-.607-2.339-1.329-3.635-2.079,1.638-2.887,3.2-5.674,4.812-8.428a2.736,2.736,0,0,1,1.073-.788c5.182-2.86,10.38-5.689,15.545-8.578a2.008,2.008,0,0,1,2.237.012c5.172,2.876,10.384,5.681,15.553,8.564a4.442,4.442,0,0,1,1.575,1.573c1.439,2.452,2.783,4.96,4.273,7.647M17.642,41.123c0,2.674-.028,5.064.031,7.452a1.446,1.446,0,0,0,.686.99q7.274,4.079,14.6,8.066a1.633,1.633,0,0,0,1.335.005q7.328-3.98,14.6-8.057c.282-.157.673-.472.678-.721.05-2.5.031-5.005.031-7.727L38.446,47.556l-3.619-5.3-.283.106q0,.658,0,1.317,0,5.431,0,10.862c0,.633.109,1.288-.9,1.3-.987.008-.93-.61-.93-1.265,0-3.711-.237-7.442.074-11.127.265-3.135-.752-4.863-3.631-6.2-4.168-1.929-8.1-4.366-12.21-6.628l-3.29,6.014,14.485,8.38,3.013-4.388,1.575,1.043-3.914,5.9-11.176-6.45M48.615,29.375c-4.977-2.747-9.743-5.4-14.543-7.986a1.715,1.715,0,0,0-1.322.214c-3.451,1.869-6.879,3.781-10.314,5.681-1.206.667-2.41,1.338-3.782,2.1,4.966,2.739,9.737,5.38,14.526,7.989a1.189,1.189,0,0,0,.973-.031c4.748-2.593,9.48-5.215,14.462-7.968M39.009,45.018l14.505-8.389-3.308-6.011L34.964,39l4.046,6.019" transform="translate(-11.093 -19.248)" fill="#033362"/>
  <path id="Path_62284" data-name="Path 62284" d="M79.061,43.168l-4.226-3.749,1.67-1.3,3.257,3.79,3.924-3.712,1.324,1.311-3.918,3.518,4.017,3.462-1.618,1.7L79.976,43.92l-3.391,4.511-1.7-1.7,4.177-3.567" transform="translate(-57.439 -32.967)" fill="#033362"/>
</svg>
