<svg xmlns="http://www.w3.org/2000/svg" width="31.011" height="43.028" viewBox="0 0 31.011 43.028">
  <path id="Forma_1" data-name="Forma 1" d="M2.916,43.028A2.925,2.925,0,0,1,0,40.1V5.9A2.926,2.926,0,0,1,2.916,2.974H8.26a2.18,2.18,0,0,1,2.061-1.487h2.261a3.618,3.618,0,0,1,5.847,0h2.26A2.18,2.18,0,0,1,22.75,2.974h5.344A2.926,2.926,0,0,1,31.01,5.9V40.1a2.925,2.925,0,0,1-2.916,2.928ZM1.389,5.9V40.1a1.532,1.532,0,0,0,1.527,1.534H28.094A1.532,1.532,0,0,0,29.622,40.1V5.9a1.532,1.532,0,0,0-1.527-1.533h-5.23V5.948h4.489a.7.7,0,0,1,.695.7V39.357a.7.7,0,0,1-.695.7H3.657a.7.7,0,0,1-.694-.7V6.645a.7.7,0,0,1,.694-.7H8.146V4.369H2.916A1.532,1.532,0,0,0,1.389,5.9ZM4.351,38.66H26.66V7.342H22.75a2.18,2.18,0,0,1-2.061,1.487H10.321A2.18,2.18,0,0,1,8.26,7.342H4.351ZM9.535,3.671V6.646a.79.79,0,0,0,.787.788H20.689a.79.79,0,0,0,.787-.789h0V3.671a.789.789,0,0,0-.787-.79H18.057a.694.694,0,0,1-.6-.346,2.24,2.24,0,0,0-3.9,0,.694.694,0,0,1-.6.346H10.321A.789.789,0,0,0,9.535,3.671Zm6.711,29.692a.7.7,0,0,1,0-1.394h7.405a.7.7,0,0,1,0,1.394Zm-7.156-.2-2.221-2.23a.7.7,0,0,1,0-.985.69.69,0,0,1,.981,0L9.581,31.68l3.211-3.224a.691.691,0,0,1,.982,0,.7.7,0,0,1,0,.986l-3.7,3.717a.692.692,0,0,1-.982,0Zm7.156-2.769a.7.7,0,0,1,0-1.394h4.443a.7.7,0,0,1,0,1.394Zm0-4.461a.7.7,0,0,1,0-1.394h7.405a.7.7,0,0,1,0,1.394Zm-7.156-.2-2.221-2.23a.7.7,0,0,1,.981-.986l1.732,1.738,3.211-3.225a.7.7,0,1,1,.982.985l-3.7,3.717a.692.692,0,0,1-.982,0Zm7.156-2.769a.7.7,0,0,1,0-1.394h4.443a.7.7,0,0,1,0,1.394Zm0-4.46a.7.7,0,0,1,0-1.394h7.405a.7.7,0,0,1,0,1.394Zm-7.156-.2L6.869,16.06a.7.7,0,0,1,.981-.986l1.732,1.738,3.211-3.225a.693.693,0,0,1,.982,0,.7.7,0,0,1,0,.986l-3.7,3.717a.692.692,0,0,1-.982,0Zm7.156-2.77a.7.7,0,0,1,0-1.394h4.443a.7.7,0,0,1,0,1.394ZM14.811,5.158V3.671a.694.694,0,1,1,1.388,0V5.158a.694.694,0,1,1-1.388,0Z" fill="#f7941d"/>
</svg>
