<svg xmlns="http://www.w3.org/2000/svg" width="50.409" height="43.196" viewBox="0 0 50.409 43.196">
  <path id="Shape_1" data-name="Shape 1" d="M1811.435,304.526c-.966-.071-2.958.986-3.5,1.258a62.444,62.444,0,0,0-6.42,3.652c-.123.08-.288.191-.411.272a7.864,7.864,0,0,1-2.578,1.036,82.759,82.759,0,0,1-12.665,1.187l-.442.02a.629.629,0,0,1-.667-.523.615.615,0,0,1,.575-.694l11.165-1.036a2.307,2.307,0,1,0-.483-4.588l-9.932-.12a10.768,10.768,0,0,1-2.4-.362c-6.4-1.831-10.015-.121-11.936.684a2.342,2.342,0,0,0-2.147-1.087l-4.283.282a2.494,2.494,0,0,0-2.4,2.605l.688,9.316a2.536,2.536,0,0,0,2.763,2.264l4.283-.282a2.275,2.275,0,0,0,1.962-1.348l18.818.795a10.247,10.247,0,0,0,5.906-.976l.534-.271,14.226-8.149a2.325,2.325,0,0,0,1.222-1.861A1.924,1.924,0,0,0,1811.435,304.526Zm-43.51,11.962a1.38,1.38,0,1,1,1.459-1.378A1.421,1.421,0,0,1,1767.925,316.488Zm32.736-10.533c1.5-.8,4.437-2.193,6.04-2.807a2.416,2.416,0,0,1,2.321.191,15.744,15.744,0,0,0-1.613.694,61.522,61.522,0,0,0-6.1,3.4c-.144.1-.3.2-.442.3a3.919,3.919,0,0,0-.01-.774,4.1,4.1,0,0,0-.216-.946A.141.141,0,0,1,1800.66,305.955Zm4.489-3.743c-1.161.5-3.39,1.268-4.448,1.841l-.719.382a1.332,1.332,0,0,0-.2.131,4.506,4.506,0,0,0-1.12-.936c.986-.513,3.184-1.207,4.181-1.589A2.427,2.427,0,0,1,1805.149,302.212Zm-30.445-6.358a1.067,1.067,0,0,1,1.078-1.056h26.881a1.057,1.057,0,1,1,0,2.113h-26.891A1.065,1.065,0,0,1,1774.7,295.854Zm0,3.823a1.068,1.068,0,0,1,1.078-1.057h26.881a1.057,1.057,0,1,1,0,2.113h-26.891A1.065,1.065,0,0,1,1774.7,299.677Zm21.016-15.362a1.531,1.531,0,1,1,1.531,1.5A1.519,1.519,0,0,1,1795.719,284.315Zm-16.054,0a1.531,1.531,0,1,1,1.53,1.5A1.519,1.519,0,0,1,1779.665,284.315Zm-2.465,8.813h24.036a2.5,2.5,0,0,0,2.516-2.465v-12.7a2.5,2.5,0,0,0-2.516-2.465H1777.2a2.5,2.5,0,0,0-2.516,2.465v12.7A2.5,2.5,0,0,0,1777.2,293.128Zm-.37-12.606a2.228,2.228,0,0,0,.452.04,2.521,2.521,0,0,0,2.547-2.495,3.36,3.36,0,0,0-.041-.463H1798.5a2.4,2.4,0,0,0-.082.614,2.54,2.54,0,0,0,3.174,2.414v7.656a2.608,2.608,0,0,0-.627-.08,2.521,2.521,0,0,0-2.547,2.495c0,.1.01.212.021.312h-18.653a2.277,2.277,0,0,0,.041-.463,2.521,2.521,0,0,0-2.547-2.495,2.294,2.294,0,0,0-.452.04Zm12.388,9.205a5.4,5.4,0,1,0-5.516-5.4A5.461,5.461,0,0,0,1789.218,289.728Zm-1.983-4.266,1.027-.02a.2.2,0,0,1,.205.171.877.877,0,0,0,.226.573.838.838,0,0,0,.606.231.61.61,0,0,0,.473-.181.69.69,0,0,0,.164-.463.722.722,0,0,0-.164-.513,1.809,1.809,0,0,0-.586-.362,5.026,5.026,0,0,1-1.479-.8,1.516,1.516,0,0,1-.462-1.2,1.554,1.554,0,0,1,.493-1.177,2.09,2.09,0,0,1,1.161-.523v-.745a.178.178,0,0,1,.175-.171h.626a.178.178,0,0,1,.174.171v.764a1.909,1.909,0,0,1,1.089.6,1.753,1.753,0,0,1,.431,1.117.2.2,0,0,1-.205.2l-1.037.02a.2.2,0,0,1-.205-.171.984.984,0,0,0-.174-.513.581.581,0,0,0-.483-.221.539.539,0,0,0-.452.181.826.826,0,0,0,.01.946,1.733,1.733,0,0,0,.585.372,5.288,5.288,0,0,1,1.469.835,1.528,1.528,0,0,1,.473,1.187,1.551,1.551,0,0,1-.473,1.187,1.955,1.955,0,0,1-1.037.493v.714a.178.178,0,0,1-.175.171h-.626a.178.178,0,0,1-.175-.171v-.694a2.329,2.329,0,0,1-1.325-.563,1.71,1.71,0,0,1-.534-1.248A.219.219,0,0,1,1787.235,285.462Z" transform="translate(-1762.896 -275.502)" fill="#033362"/>
</svg>
