<svg xmlns="http://www.w3.org/2000/svg" width="56.319" height="35.64" viewBox="0 0 56.319 35.64">
  <path id="Shape_1" data-name="Shape 1" d="M41.387,30.053c0-.02,0-.04,0-.059H21.515c0,.02,0,.04,0,.059a5.585,5.585,0,1,1-11.17,0c0-.02,0-.04,0-.059H5.585a1.825,1.825,0,0,1-1.823-1.823V26.23H.882a.882.882,0,1,1,0-1.764H9.347a.882.882,0,1,1,0,1.764H5.526v1.941a.058.058,0,0,0,.059.058h5.069a5.583,5.583,0,0,1,10.556,0h18.3V21.584a.882.882,0,0,1,1.764,0v6.646h.425a5.583,5.583,0,0,1,10.556,0h2.306V24.348h-1a2.766,2.766,0,0,1-2.763-2.764V19.7a.882.882,0,0,1,.882-.882h2.742a2.886,2.886,0,0,0-2.74-2H41.27v1a.882.882,0,0,1-1.764,0v-16a.058.058,0,0,0-.058-.059H5.585a.058.058,0,0,0-.059.059v16a.882.882,0,0,1-1.764,0v-16A1.825,1.825,0,0,1,5.585,0H39.447A1.824,1.824,0,0,1,41.27,1.823V3.764h6.644a3.709,3.709,0,0,1,3.7,3.705V8.41a.882.882,0,0,1-.7.862l1.459,5.836A4.652,4.652,0,0,1,56.319,19.7v9.409a.881.881,0,0,1-.881.882H52.555c0,.02,0,.04,0,.059a5.585,5.585,0,1,1-11.17,0Zm1.764,0a3.821,3.821,0,1,0,3.82-3.823A3.825,3.825,0,0,0,43.151,30.053Zm-31.041,0a3.821,3.821,0,1,0,3.821-3.823A3.826,3.826,0,0,0,12.11,30.053Zm40.447-8.469a1,1,0,0,0,1,1h1v-2h-2ZM41.27,15.056h9.276l-1.44-5.765H41.27Zm0-7.528h8.583V7.469a1.943,1.943,0,0,0-1.939-1.941H41.27Zm3.88,22.522a1.82,1.82,0,1,1,1.821,1.82A1.82,1.82,0,0,1,45.149,30.05Zm-31.039,0a1.82,1.82,0,1,1,1.82,1.82A1.819,1.819,0,0,1,14.11,30.05Zm9.346-3.82a.882.882,0,1,1,0-1.764H36.625a.882.882,0,1,1,0,1.764ZM2.763,22.466a.882.882,0,1,1,0-1.764H14.051a.882.882,0,0,1,0,1.764Zm18.189-4.022-4.7-4.705A.882.882,0,0,1,17.5,12.491l4.08,4.081,7.842-7.845a.882.882,0,0,1,1.247,1.247L22.2,18.444a.881.881,0,0,1-1.246,0Z" fill="#39b54a"/>
</svg>
