<svg xmlns="http://www.w3.org/2000/svg" width="27.28" height="40.96" viewBox="0 0 27.28 40.96">
  <path id="Forma_1" data-name="Forma 1" d="M1325.73,1410.346a3.379,3.379,0,0,0-1.7.459v-.459a3.415,3.415,0,0,0-3.41-3.413,3.38,3.38,0,0,0-1.7.459v-.459a3.41,3.41,0,1,0-6.82,0v.459a3.378,3.378,0,0,0-1.7-.459,3.415,3.415,0,0,0-3.41,3.413v9.388a4.24,4.24,0,0,0-2.557-.855,2.562,2.562,0,0,0-2.557,2.56v7.7a15.137,15.137,0,0,0,4.455,10.767l2.82,2.824a6.009,6.009,0,0,0,4.22,1.75h6.407a9.393,9.393,0,0,0,9.377-9.387V1413.76A3.415,3.415,0,0,0,1325.73,1410.346Zm1.705,24.747a7.686,7.686,0,0,1-7.673,7.68h-6.407a4.287,4.287,0,0,1-3.015-1.251l-2.82-2.823a13.444,13.444,0,0,1-3.955-9.561v-7.7a.854.854,0,0,1,.853-.854,2.562,2.562,0,0,1,2.557,2.56v5.12a.853.853,0,1,0,1.705,0v-17.92a1.7,1.7,0,1,1,3.41,0v11.093a.853.853,0,1,0,1.705,0v-14.507a1.705,1.705,0,1,1,3.41,0v14.507a.853.853,0,1,0,1.705,0v-11.093a1.7,1.7,0,1,1,3.41,0v11.093a.853.853,0,1,0,1.705,0v-7.68a1.705,1.705,0,1,1,3.41,0Z" transform="translate(-1301.859 -1403.52)" fill="#00aeef"/>
</svg>
