<svg id="Group_42466" data-name="Group 42466" xmlns="http://www.w3.org/2000/svg" xmlns:xlink="http://www.w3.org/1999/xlink" width="45.514" height="43.242" viewBox="0 0 45.514 43.242">
  <defs>
    <clipPath id="clip-path">
      <rect id="Rectangle_18524" data-name="Rectangle 18524" width="45.514" height="43.241" fill="#033362" stroke="#033362" stroke-width="0.5"/>
    </clipPath>
  </defs>
  <g id="Group_42466-2" data-name="Group 42466" clip-path="url(#clip-path)">
    <path id="Path_62332" data-name="Path 62332" d="M45.474,12.212l-.018-.178c-.033-.321-.065-.641-.108-.961a11.8,11.8,0,0,0-.5-2.1,13.089,13.089,0,0,0-1.071-2.418A12.783,12.783,0,0,0,42.1,4.252,12.963,12.963,0,0,0,39.431,2.02,13.155,13.155,0,0,0,36.716.726a12.189,12.189,0,0,0-2.61-.6c-.414-.046-.843-.093-1.268-.112A11.777,11.777,0,0,0,31.2.057C30.718.1,30.244.166,29.8.25A13.368,13.368,0,0,0,27.35.964a13.1,13.1,0,0,0-2.013,1.006A12.789,12.789,0,0,0,23.3,3.508c-.153.143-.3.289-.458.436l-.092.088L22.616,3.9c-.122-.119-.245-.237-.368-.354A12.192,12.192,0,0,0,20.79,2.372,13.428,13.428,0,0,0,16.723.483a11.874,11.874,0,0,0-2.086-.39l-.1-.009c-.353-.031-.718-.063-1.08-.075-.217-.007-.433,0-.649.009q-.157.007-.314.01a11.6,11.6,0,0,0-1.546.158A12.85,12.85,0,0,0,9.024.649,13.143,13.143,0,0,0,6.671,1.671,12.815,12.815,0,0,0,4.125,3.527,12.864,12.864,0,0,0,1.157,7.685,13.288,13.288,0,0,0,.5,9.487a14.121,14.121,0,0,0-.35,1.607,11.259,11.259,0,0,0-.14,1.341A13.659,13.659,0,0,0,.1,14.777c.052.39.126.9.245,1.417a13.534,13.534,0,0,0,1.767,4.22A12.726,12.726,0,0,0,3.374,22.08c.16.178.329.347.5.517l.432.437a3.779,3.779,0,0,0-1.377,4.372A3.658,3.658,0,0,0,4.28,29.2a3.757,3.757,0,0,0,2.94.635,3.786,3.786,0,0,0,4.444,4.445,3.786,3.786,0,0,0,4.446,4.444,3.791,3.791,0,0,0,2.1,4.16,3.727,3.727,0,0,0,1.589.362,3.774,3.774,0,0,0,.775-.082A3.733,3.733,0,0,0,23,41.5a3.811,3.811,0,0,0,5.555-4.061A3.784,3.784,0,0,0,32.988,33a3.787,3.787,0,0,0,4.446-4.443,3.78,3.78,0,0,0,3.8-1.488,3.819,3.819,0,0,0,.171-4.224c.029-.027.058-.054.087-.082a13.732,13.732,0,0,0,1.166-1.3,13.414,13.414,0,0,0,2.636-5.871,12.634,12.634,0,0,0,.2-1.7,11.637,11.637,0,0,0-.019-1.684M27.538,18.653a.629.629,0,0,0,.014.905q.541.545,1.087,1.088l2.074,2.073q2.361,2.361,4.722,4.723a2.52,2.52,0,0,1,.747,1.376A2.461,2.461,0,0,1,35.555,31a2.5,2.5,0,0,1-3.288.323,3.273,3.273,0,0,1-.405-.351q-3.905-3.9-7.806-7.805a.71.71,0,0,0-.489-.246.633.633,0,0,0-.526,1.025.854.854,0,0,0,.1.108L25.2,26.112q2.933,2.933,5.865,5.868a2.393,2.393,0,0,1,.675,1.326A2.481,2.481,0,0,1,30.1,36.1a2.407,2.407,0,0,1-2.373-.4,5.62,5.62,0,0,1-.439-.4l-.077-.076c-.209-.2-.413-.407-.618-.613l-6.966-6.97a.763.763,0,0,0-.408-.256.632.632,0,0,0-.642.244.611.611,0,0,0-.03.7,1.159,1.159,0,0,0,.163.195l6.219,6.219q.86.86,1.719,1.72a2.361,2.361,0,0,1,.648,1.273,2.51,2.51,0,0,1-1.985,2.909,2.456,2.456,0,0,1-1.809-.328l-.006,0,0-.011a3.74,3.74,0,0,0-.291-2.5,3.785,3.785,0,0,0-4.132-2.042,3.786,3.786,0,0,0-4.444-4.447,3.787,3.787,0,0,0-4.451-4.445l.043-.279a3.478,3.478,0,0,0-.011-1.049,3.767,3.767,0,0,0-3.154-3.142,3.754,3.754,0,0,0-1.445.056c-.039.009-.052.009-.062,0-.124-.122-.25-.242-.376-.362-.191-.181-.382-.363-.565-.552a11.733,11.733,0,0,1-1.707-2.284,12.255,12.255,0,0,1-1.08-2.473,12.617,12.617,0,0,1-.422-1.85,12.377,12.377,0,0,1-.112-2.451,10.751,10.751,0,0,1,.187-1.544,12.374,12.374,0,0,1,.7-2.367A11.9,11.9,0,0,1,3.611,6.014,11.284,11.284,0,0,1,4.849,4.6,11.7,11.7,0,0,1,9.523,1.826a11.31,11.31,0,0,1,1.742-.4,10.034,10.034,0,0,1,1.225-.122L12.8,1.3c.206-.008.412-.017.616-.009.366.012.739.046,1.13.081a11.069,11.069,0,0,1,1.95.375,11.71,11.71,0,0,1,1.751.643,11.961,11.961,0,0,1,2.4,1.462,12.23,12.23,0,0,1,1.228,1.114L20.81,6.027Q17.4,9.439,13.986,12.849a1.31,1.31,0,0,0-.324.466,1.1,1.1,0,0,0,.357,1.255c.242.192.465.355.682.5a6.434,6.434,0,0,0,2,.863,7.5,7.5,0,0,0,1.3.191,5.946,5.946,0,0,0,.916-.019,6.535,6.535,0,0,0,1.838-.428,6.8,6.8,0,0,0,2.345-1.539l3.946-3.948.012-.013,0,0L39.972,23.1a2.4,2.4,0,0,1,.687,1.459,2.465,2.465,0,0,1-.229,1.373,2.4,2.4,0,0,1-.939,1.044,2.429,2.429,0,0,1-1.472.369,2.381,2.381,0,0,1-1.576-.695l-5.511-5.51-2.4-2.4c-.03-.031-.059-.061-.091-.09a.642.642,0,0,0-.905,0M4.715,27.9a2.54,2.54,0,0,1-.736-1.786,2.486,2.486,0,0,1,2.5-2.5h.017a2.468,2.468,0,0,1,1.76.724,2.5,2.5,0,0,1,.726,1.772v0a2.471,2.471,0,0,1-2.5,2.5h0A2.472,2.472,0,0,1,4.715,27.9m6.21.163h.013a2.5,2.5,0,0,1,1.737,4.294,2.425,2.425,0,0,1-1.75.7H10.92a2.412,2.412,0,0,1-1.748-.714,2.517,2.517,0,0,1-.747-1.788,2.48,2.48,0,0,1,2.5-2.493M13.6,33.24a2.533,2.533,0,0,1,1.772-.728h.013a2.5,2.5,0,1,1,0,5h-.014a2.53,2.53,0,0,1-1.774-.726,2.526,2.526,0,0,1,0-3.545m6.224,3.718h0a2.512,2.512,0,0,1,1.779.755,2.4,2.4,0,0,1,.705,1.735v.007a2.454,2.454,0,0,1-.7,1.754,2.491,2.491,0,0,1-1.79.751h-.007a2.5,2.5,0,1,1,.01-5M40.557,21.882l-.02-.019-.8-.806q-.621-.627-1.244-1.252L27.58,8.877a.773.773,0,0,0-.3-.213.7.7,0,0,0-.226-.039.6.6,0,0,0-.418.171c-.034.031-.066.064-.1.1L25.17,10.26q-1.492,1.493-2.986,2.984a5.4,5.4,0,0,1-2.1,1.306,4.372,4.372,0,0,1-1.206.256l-.172.009a6.564,6.564,0,0,1-.81.011,5.271,5.271,0,0,1-1.856-.477,5.759,5.759,0,0,1-1.066-.647l-.023-.018.006-.007,2.421-2.421q2.875-2.875,5.749-5.75c.135-.135.266-.274.4-.412.173-.183.347-.366.528-.54a11.438,11.438,0,0,1,2.161-1.613,12.135,12.135,0,0,1,2.262-1.025A11.311,11.311,0,0,1,30.712,1.4c.351-.043.668-.072.971-.091.35-.022.639-.03.91-.023a12.844,12.844,0,0,1,1.385.108,12.1,12.1,0,0,1,2.383.567,11.767,11.767,0,0,1,4.106,2.458A11.639,11.639,0,0,1,42.539,6.96a11.461,11.461,0,0,1,1.14,2.527,12.716,12.716,0,0,1,.43,1.9,12.954,12.954,0,0,1,.109,2.468,10.56,10.56,0,0,1-.162,1.422,12.541,12.541,0,0,1-.38,1.575,12.4,12.4,0,0,1-.471,1.258,11.72,11.72,0,0,1-1.094,1.951,12.036,12.036,0,0,1-1.552,1.826M22.044,4.9l-.005.011,0,0Z" transform="translate(0 0)" fill="#033362" stroke="#033362" stroke-width="0.5"/>
  </g>
</svg>
