<svg xmlns="http://www.w3.org/2000/svg" width="46.782" height="48.268" viewBox="0 0 46.782 48.268">
  <g id="Group_42151" data-name="Group 42151" transform="translate(0.5)">
    <g id="Group_42150" data-name="Group 42150">
      <path id="Path-3" d="M-5.767,67.43a.352.352,0,0,1-.352-.347L-6.4,47.321a.351.351,0,0,1,.112-.262.364.364,0,0,1,.27-.093c2.375.209,3.871.422,4.363.492a2.941,2.941,0,0,1,1.34.728A6.574,6.574,0,0,0,.727,48.9l.256.137c.807.433,1.569.842,1.954.746A7.413,7.413,0,0,0,4.7,48.819l.388-.251A13.6,13.6,0,0,0,7.4,46.312a.352.352,0,0,1,.247-.12.369.369,0,0,1,.258.095l1.872,1.754,2.2-5.635a.338.338,0,0,1,.337-.224.352.352,0,0,1,.324.241l2.144,6.5,2.049,1.464L19.1,46.37a.353.353,0,0,1,.183-.157l2.068-.776,1.438-7.053a.35.35,0,0,1,.119-.2l.844-.7a.352.352,0,0,1,.553.143l2.381,6.151,1.752-1.051a.352.352,0,0,1,.51.177L30.9,48.046c1.322-4.43,1.564-4.752,1.659-4.878.27-.325,1.385-1.42,2.369-2.387.39-.383.741-.728.969-.956a6.542,6.542,0,0,1,2.528-1.351.352.352,0,0,1,.463.327l.492,27.989a.351.351,0,0,1-.35.358l-44.8.282ZM-5.692,47.7l.271,19.023,44.093-.277L38.195,39.3a5.152,5.152,0,0,0-1.8,1.02c-.229.229-.581.576-.973.96-.875.86-2.074,2.038-2.31,2.322a41.491,41.491,0,0,0-1.832,5.641.352.352,0,0,1-.324.253.36.36,0,0,1-.342-.227l-2.172-5.726-1.749,1.049a.352.352,0,0,1-.509-.174l-2.355-6.083-.373.311L22,45.769a.351.351,0,0,1-.221.259l-2.13.8-2.4,4.249a.352.352,0,0,1-.511.113l-2.461-1.758a.353.353,0,0,1-.129-.177l-1.875-5.683L10.243,48.78a.35.35,0,0,1-.25.215.346.346,0,0,1-.318-.086L7.689,47.047a12.739,12.739,0,0,1-2.22,2.109l-.391.253a7.521,7.521,0,0,1-1.969,1.062c-.651.16-1.447-.266-2.458-.809L.4,49.526a7.155,7.155,0,0,1-1.15-.79,2.37,2.37,0,0,0-1-.581c-.462-.066-1.809-.258-3.94-.453Z" transform="translate(6.4 -24.25)" fill="#033362" stroke="#033362" stroke-width="1"/>
      <rect id="Rectangle-20" width="0.703" height="48.267" transform="translate(29.959)" fill="#033362"/>
      <ellipse id="Ellipse_346" data-name="Ellipse 346" cx="2.11" cy="2.11" rx="2.11" ry="2.11" transform="translate(28.201 8.735)" fill="#033362" stroke="#fff" stroke-linecap="square" stroke-width="2"/>
    </g>
  </g>
</svg>
