<svg id="Group_42471" data-name="Group 42471" xmlns="http://www.w3.org/2000/svg" xmlns:xlink="http://www.w3.org/1999/xlink" width="45.066" height="45.087" viewBox="0 0 45.066 45.087">
  <defs>
    <clipPath id="clip-path">
      <rect id="Rectangle_18525" data-name="Rectangle 18525" width="45.067" height="45.088" fill="#033362"/>
    </clipPath>
  </defs>
  <g id="Group_42470" data-name="Group 42470" clip-path="url(#clip-path)">
    <path id="Path_62333" data-name="Path 62333" d="M45.06,38.31c.013-.174,0-.385,0-.571-.007-.447.008-18.854,0-19.3-.028-.758-.237-.967-.969-.976-1.829-.019-3.786,0-5.616,0-.011-1.015.008-2.844,0-3.829-.154-1.217.411-4.14-.441-4.878C35.062,5.872,32.279,2.777,29.212,0H8.149a2.67,2.67,0,0,0-1.6,2.856c.069,4.9.011,9.741.021,14.608-.615,0-2.927-.007-3.5.01C2.095,17.64.738,17.051,0,17.9V38.7c.444.832,3.392.274,4.469.428.662,0,1.42.006,2.1.006.02.451-.015,1.011.01,1.451.095,1.216-.35,2.809.563,3.717a2.782,2.782,0,0,0,2.075.781c4.527-.029,9.025-.043,13.458-.043s8.809.014,13.089.043a2.808,2.808,0,0,0,2.135-.778c.912-.91.469-2.442.564-3.65.027-.427,0-.973.011-1.412a27.9,27.9,0,0,1,3.145-.106c.858,0,1.746,0,2.616-.012.578-.01.777-.21.823-.82m-15.2-35.37,5.671,5.812H29.862ZM8.118,1.53H28.251c.152,2.459.054,4.932.082,7.4,0,1.253.093,1.341,1.4,1.343,2.407.025,4.814-.067,7.219.082V17.4H8.118Zm28.808,42H8.1V39.218H36.926Zm6.64-6.217c-5.293.61-35.232.506-42.05.154V19.019h42.05Z" fill="#033362"/>
    <path id="Path_62334" data-name="Path 62334" d="M87.736,119.981c.249-.529.463-1.108.7-1.646h5.195c.209.5.423,1.091.635,1.568.576,1.252,1.738.37,1.388-.521-1.182-3.156-2.429-6.456-3.631-9.625-.476-1.259-1.65-1.054-2.02.107-.673,1.8-1.367,3.629-2.037,5.4-.406,1.06-.8,2.125-1.212,3.181-.233.662-.849,1.726.091,2.028.155.054.567.2.895-.489m3.278-8.638,2.079,5.46h-4.11Z" transform="translate(-68.496 -86.397)" fill="#033362"/>
    <path id="Path_62335" data-name="Path 62335" d="M144.427,110.6c.968,1.362,2,2.82,2.979,4.2-1.041,1.582-2.191,3.08-3.249,4.655a.727.727,0,1,0,1.187.839c.333-.42,2.6-3.61,2.975-4.11.593.725,1.181,1.5,1.707,2.258q.655.916,1.314,1.829c.465.6,1.061.455,1.352-.223.083-.219.022-.392-.3-.841-.988-1.394-2.1-2.945-3.1-4.344.991-1.556,2.115-2.994,3.155-4.524.512-.741.108-1.046-.025-1.146-1.05-.6-1.566,1.027-2.135,1.638-.565.773-1.382,1.878-1.964,2.668-.4-.56-.884-1.236-1.271-1.782-.643-.7-1.468-2.6-2.326-2.669-.869.028-.836,1.031-.3,1.555" transform="translate(-114.254 -86.513)" fill="#033362"/>
    <path id="Path_62336" data-name="Path 62336" d="M40.557,109.73c0-.334-.1-.677-.778-.684-2.413-.025-4.791-.022-7.069.008-1.087.016-1.065,1.312-.168,1.394.932.034,2.019,0,3,.007.006,3.1-.016,6.313.009,9.414a.715.715,0,0,0,1.424.117c.1-3,0-6.495.037-9.52.421,0,1,0,1.4.006.732-.024,2.266.236,2.15-.742" transform="translate(-25.293 -86.5)" fill="#033362"/>
    <path id="Path_62337" data-name="Path 62337" d="M66.919,28.554c-1.664-.02-3.313,0-4.973-.009-.795,0-2.744-.2-1.938,1.185a.87.87,0,0,0,.634.261c2,.038,4.071.038,6.329,0,.924.05,1.407-1.393-.052-1.441" transform="translate(-47.456 -22.639)" fill="#033362"/>
    <path id="Path_62338" data-name="Path 62338" d="M67.745,57.677c.968-1.668-1.916-1.113-2.792-1.2-1.4.01-2.8-.018-4.2.008a.726.726,0,1,0-.06,1.448c2.11.038,4.275.038,6.435,0a.845.845,0,0,0,.615-.261" transform="translate(-47.566 -44.79)" fill="#033362"/>
  </g>
</svg>
