<svg xmlns="http://www.w3.org/2000/svg" width="44.168" height="48.456" viewBox="0 0 44.168 48.456">
  <path id="Forma_1" data-name="Forma 1" d="M24.566,41.334l-4.976,2.9a.7.7,0,0,1-.067.028c-.023.011-.047.021-.07.03a.755.755,0,0,1-.574,0c-.023-.009-.047-.019-.069-.03s-.046-.018-.068-.028L.41,33.556A.82.82,0,0,1,0,32.849V11.5a.632.632,0,0,1,.012-.072.659.659,0,0,0,.01-.072.8.8,0,0,1,.095-.269v-.005c0-.006.013-.009.013-.014a.812.812,0,0,1,.184-.2c.017-.014.032-.026.05-.038A.461.461,0,0,1,.41,10.79L18.743.114a.84.84,0,0,1,.848,0L37.923,10.79a.819.819,0,0,1,.41.707V29.646a9.8,9.8,0,0,1-1.39,18.42,10.14,10.14,0,0,1-2.777.389A9.982,9.982,0,0,1,24.566,41.334ZM25.833,38.6a8.334,8.334,0,1,0,8.333-8.212A8.274,8.274,0,0,0,25.833,38.6ZM20,39.419v2.668l4.221-2.46a10.09,10.09,0,0,1-.055-1.03,9.705,9.705,0,0,1,.329-2.538,9.974,9.974,0,0,1,12.171-6.988V11.965L31.111,8.731,14.416,18.453l4.75,2.767,15.088-8.787a.841.841,0,0,1,1.142.289.815.815,0,0,1-.293,1.125L20,22.642V36.134a.833.833,0,0,1-1.667,0V22.642l-4.722-2.75v5.953a.827.827,0,0,1-.833.822.853.853,0,0,1-.424-.114L6.382,23.074a.822.822,0,0,1-.41-.708V15.444L1.667,12.937V32.381l16.666,9.706V39.419a.833.833,0,0,1,1.667,0ZM7.639,21.9l4.3,2.507V18.922l-4.3-2.507ZM15.719,9.785a.815.815,0,0,1-.293,1.125L8.444,14.975,12.777,17.5l16.7-9.719L25.139,5.256l-7.215,4.2a.84.84,0,0,1-1.142-.289.814.814,0,0,1,.293-1.126L23.5,4.3,19.166,1.775,2.471,11.5,6.806,14.02l7.771-4.525a.84.84,0,0,1,1.142.29ZM27.5,38.6a6.62,6.62,0,0,1,6.665-6.572.822.822,0,1,1,0,1.643,5.015,5.015,0,0,0-4.145,2.175,4.883,4.883,0,0,0,1.354,6.839,5.046,5.046,0,0,0,6.94-1.336,4.883,4.883,0,0,0-1.354-6.839.813.813,0,0,1-.217-1.107.84.84,0,0,1,1.15-.253A6.545,6.545,0,0,1,40.834,38.6a6.667,6.667,0,0,1-13.333,0Zm4.827,2.632L31.077,40a.812.812,0,0,1,0-1.141.841.841,0,0,1,1.178-.02l.661.651,3.161-3.115a.844.844,0,0,1,1.158,0,.814.814,0,0,1,.021,1.162l-3.75,3.7a.842.842,0,0,1-1.178,0ZM7.383,33.673a.72.72,0,0,1-.72-.72v-3.49a.72.72,0,0,1,.72-.72h.226a.72.72,0,0,1,.72.72v3.49a.72.72,0,0,1-.72.72ZM4.05,32.029a.72.72,0,0,1-.72-.72v-3.49a.72.72,0,0,1,.72-.72h.226a.72.72,0,0,1,.72.72v3.49a.72.72,0,0,1-.72.72Z" transform="translate(0 0)" fill="#00aeef"/>
</svg>
