<svg id="Iconly_Light-Outline_Location" data-name="Iconly/Light-Outline/Location" xmlns="http://www.w3.org/2000/svg" width="19.141" height="22.621" viewBox="0 0 19.141 22.621">
  <g id="Location">
    <path id="Combined-Shape" d="M9.57,1a9.618,9.618,0,0,1,9.57,9.643c0,6.537-7.489,12.977-9.57,12.977S0,17.18,0,10.643A9.618,9.618,0,0,1,9.57,1Zm0,1.74a7.876,7.876,0,0,0-7.83,7.9c0,5.544,6.524,10.945,7.83,11.233,1.306-.289,7.83-5.69,7.83-11.233A7.876,7.876,0,0,0,9.57,2.74Zm0,4.06A3.77,3.77,0,1,1,5.8,10.571,3.775,3.775,0,0,1,9.571,6.8Zm0,1.74a2.03,2.03,0,1,0,2.03,2.031A2.033,2.033,0,0,0,9.571,8.54Z" transform="translate(0.001 -1)" fill="#0388cc" fill-rule="evenodd"/>
  </g>
</svg>
