<svg xmlns="http://www.w3.org/2000/svg" width="46.525" height="51.751" viewBox="0 0 46.525 51.751">
  <path id="Forma_1" data-name="Forma 1" d="M25.877,44.146l-5.241,3.1c-.023.013-.048.019-.07.03a.772.772,0,0,1-.075.031.789.789,0,0,1-.6,0,.673.673,0,0,1-.074-.031c-.024-.009-.048-.019-.071-.03L.431,35.839A.878.878,0,0,1,0,35.084V12.28A.713.713,0,0,1,.013,12.2a.758.758,0,0,0,.01-.077.879.879,0,0,1,.1-.287v-.005c0-.007.014-.01.014-.016A.864.864,0,0,1,.33,11.6l.051-.04c.018-.012.031-.028.049-.039L19.742.122a.882.882,0,0,1,.894,0l19.311,11.4a.876.876,0,0,1,.43.756V31.663a10.524,10.524,0,1,1-14.5,12.483Zm1.335-2.923a8.778,8.778,0,1,0,8.778-8.771A8.774,8.774,0,0,0,27.212,41.223Zm-6.144.877v2.848l4.446-2.627a10.66,10.66,0,0,1-.058-1.1A10.488,10.488,0,0,1,38.623,31.049V12.779L32.771,9.325,15.186,19.708l5,2.955,15.893-9.385a.878.878,0,1,1,.894,1.511L21.067,24.182V38.591a.878.878,0,0,1-1.756,0V24.182l-4.974-2.938V27.6a.877.877,0,0,1-.877.877.888.888,0,0,1-.447-.122l-6.29-3.714a.879.879,0,0,1-.431-.756V16.494L1.756,13.817V34.583L19.311,44.949V42.1a.878.878,0,0,1,1.756,0ZM8.047,23.387l4.534,2.678V20.209L8.047,17.531Zm8.51-12.937a.878.878,0,0,1-.31,1.2L8.895,15.994l4.565,2.695L31.045,8.309l-4.565-2.7-7.6,4.485a.878.878,0,1,1-.894-1.511l6.768-4L20.189,1.9,2.6,12.28l4.566,2.695,8.185-4.833a.879.879,0,0,1,1.2.309ZM28.968,41.224a7.019,7.019,0,0,1,7.021-7.017.877.877,0,1,1,0,1.754,5.263,5.263,0,1,0,2.944.9.877.877,0,0,1,.983-1.453,7.019,7.019,0,1,1-10.948,5.819Zm5.083,2.812L32.735,42.72a.878.878,0,0,1,1.242-1.24l.7.7L38,38.848a.877.877,0,0,1,1.241,1.24l-3.95,3.947a.877.877,0,0,1-1.241,0ZM7.738,35.963a.72.72,0,0,1-.72-.72V31.417a.72.72,0,0,1,.72-.72h.315a.72.72,0,0,1,.72.72v3.826a.72.72,0,0,1-.72.72ZM4.227,34.208a.72.72,0,0,1-.72-.72V29.662a.72.72,0,0,1,.72-.72h.315a.72.72,0,0,1,.72.72v3.826a.72.72,0,0,1-.72.72Z" fill="#033362"/>
</svg>
