<svg id="Iconly_Light-Outline_Chart" data-name="Iconly/Light-Outline/Chart" xmlns="http://www.w3.org/2000/svg" width="21.5" height="21.5" viewBox="0 0 21.5 21.5">
  <g id="Chart">
    <path id="Combined-Shape" d="M15.436,0C19.063,0,21.5,2.546,21.5,6.335v8.83c0,3.789-2.437,6.335-6.064,6.335H6.064C2.437,21.5,0,18.954,0,15.165V6.335C0,2.546,2.437,0,6.064,0Zm0,1.5H6.064C3.292,1.5,1.5,3.4,1.5,6.335v8.83C1.5,18.1,3.292,20,6.064,20h9.372C18.209,20,20,18.1,20,15.165V6.335C20,3.4,18.209,1.5,15.436,1.5ZM6.121,8.2a.75.75,0,0,1,.75.75v6.86a.75.75,0,0,1-1.5,0V8.953A.75.75,0,0,1,6.121,8.2Zm4.667-3.284a.75.75,0,0,1,.75.75V15.811a.75.75,0,1,1-1.5,0V5.668A.75.75,0,0,1,10.788,4.918Zm4.59,6.909a.75.75,0,0,1,.75.75v3.234a.75.75,0,1,1-1.5,0V12.578A.75.75,0,0,1,15.378,11.828Z" fill="#0388cc" fill-rule="evenodd"/>
  </g>
</svg>
