<svg id="Iconly_Light-Outline_Logout" data-name="Iconly/Light-Outline/Logout" xmlns="http://www.w3.org/2000/svg" width="20.537" height="20" viewBox="0 0 20.537 20">
  <g id="Logout">
    <path id="Combined-Shape" d="M9.308,0a4.441,4.441,0,0,1,4.436,4.436v.932a.75.75,0,0,1-1.5,0V4.436A2.939,2.939,0,0,0,9.308,1.5H4.433A2.937,2.937,0,0,0,1.5,4.436V15.565A2.937,2.937,0,0,0,4.433,18.5H9.319a2.929,2.929,0,0,0,2.925-2.924v-.943a.75.75,0,0,1,1.5,0v.943A4.43,4.43,0,0,1,9.319,20H4.433A4.439,4.439,0,0,1,0,15.565V4.436A4.44,4.44,0,0,1,4.433,0Zm8.08,6.554,2.928,2.915a.74.74,0,0,1,.071.081l-.071-.081a.742.742,0,0,1,.094.114c.012.018.024.038.034.057s.017.031.024.048.012.029.018.043.014.039.02.058.008.031.012.047.008.038.011.058,0,.026,0,.039a.666.666,0,0,1,0,.067l-.005.062,0,.04v.005L20.537,10a.748.748,0,0,1-.018.164c0,.016-.008.031-.012.047s-.012.04-.02.059-.012.029-.018.043-.015.033-.024.048-.022.038-.035.057l-.023.033a.8.8,0,0,1-.078.088l-2.921,2.909a.75.75,0,1,1-1.058-1.062l1.64-1.635H7.746a.75.75,0,0,1,0-1.5H17.972L16.33,7.616a.75.75,0,1,1,1.058-1.062Z" transform="translate(0)" fill="#0388cc" fill-rule="evenodd"/>
  </g>
</svg>
