<svg xmlns="http://www.w3.org/2000/svg" width="37.8" height="52.449" viewBox="0 0 37.8 52.449">
  <path id="Forma_1" data-name="Forma 1" d="M3.554,52.449A3.566,3.566,0,0,1,0,48.88V7.193A3.566,3.566,0,0,1,3.554,3.625h6.514a2.657,2.657,0,0,1,2.512-1.812h2.756a4.41,4.41,0,0,1,7.128,0h2.755a2.657,2.657,0,0,1,2.512,1.812h6.514A3.567,3.567,0,0,1,37.8,7.193V48.88a3.566,3.566,0,0,1-3.554,3.569ZM1.693,7.193V48.88A1.868,1.868,0,0,0,3.554,50.75H34.246a1.868,1.868,0,0,0,1.862-1.869V7.193a1.867,1.867,0,0,0-1.862-1.868H27.871V7.25h5.472a.849.849,0,0,1,.847.849V47.974a.849.849,0,0,1-.847.85H4.457a.848.848,0,0,1-.846-.85V8.1a.848.848,0,0,1,.846-.849H9.929V5.325H3.554A1.867,1.867,0,0,0,1.693,7.193ZM5.3,47.125H32.5V8.95H27.731a2.657,2.657,0,0,1-2.512,1.812H12.581A2.657,2.657,0,0,1,10.069,8.95H5.3Zm6.319-42.65V8.1a.963.963,0,0,0,.959.961H25.219a.963.963,0,0,0,.959-.962h0V4.475a.962.962,0,0,0-.959-.963H22.01a.846.846,0,0,1-.732-.422,2.73,2.73,0,0,0-4.757,0,.846.846,0,0,1-.732.422H12.581A.962.962,0,0,0,11.622,4.475ZM19.8,40.668a.85.85,0,0,1,0-1.7H28.83a.85.85,0,0,1,0,1.7Zm-8.723-.249L8.373,37.7a.85.85,0,0,1,0-1.2.842.842,0,0,1,1.2,0l2.111,2.117,3.914-3.93a.843.843,0,0,1,1.2,0,.852.852,0,0,1,0,1.2l-4.513,4.531a.844.844,0,0,1-1.2,0ZM19.8,37.043a.85.85,0,0,1,0-1.7h5.416a.85.85,0,0,1,0,1.7Zm0-5.438a.85.85,0,0,1,0-1.7H28.83a.85.85,0,0,1,0,1.7Zm-8.723-.249L8.373,28.637a.847.847,0,1,1,1.2-1.2l2.111,2.118,3.914-3.931a.848.848,0,1,1,1.2,1.2l-4.513,4.531a.844.844,0,0,1-1.2,0ZM19.8,27.98a.85.85,0,0,1,0-1.7h5.416a.85.85,0,0,1,0,1.7Zm0-5.437a.85.85,0,0,1,0-1.7H28.83a.85.85,0,0,1,0,1.7Zm-8.723-.249L8.373,19.576a.848.848,0,0,1,1.2-1.2l2.111,2.118,3.914-3.931a.844.844,0,0,1,1.2,0,.853.853,0,0,1,0,1.2l-4.513,4.531a.844.844,0,0,1-1.2,0ZM19.8,18.918a.85.85,0,0,1,0-1.7h5.416a.85.85,0,0,1,0,1.7ZM18.054,6.287V4.475a.846.846,0,1,1,1.692,0V6.287a.846.846,0,1,1-1.692,0Z" fill="#033362"/>
</svg>
