<svg xmlns="http://www.w3.org/2000/svg" width="68.65" height="43.443" viewBox="0 0 68.65 43.443">
  <path id="Shape_1" data-name="Shape 1" d="M50.449,36.633c0-.024,0-.048,0-.072H26.226c0,.024,0,.048,0,.072a6.808,6.808,0,1,1-13.615,0c0-.024,0-.048,0-.072H6.807a2.224,2.224,0,0,1-2.222-2.222V31.973H1.075a1.075,1.075,0,1,1,0-2.15H11.394a1.075,1.075,0,0,1,0,2.15H6.736v2.366a.071.071,0,0,0,.071.071h6.179a6.8,6.8,0,0,1,12.867,0h22.3v-8.1a1.075,1.075,0,0,1,2.15,0v8.1h.518a6.8,6.8,0,0,1,12.867,0H66.5V29.679H65.282a3.372,3.372,0,0,1-3.368-3.369V24.016A1.075,1.075,0,0,1,62.99,22.94h3.343a3.518,3.518,0,0,0-3.34-2.437H50.305v1.219a1.075,1.075,0,0,1-2.15,0V2.221a.071.071,0,0,0-.071-.071H6.807a.071.071,0,0,0-.071.071v19.5a1.075,1.075,0,1,1-2.15,0V2.221A2.224,2.224,0,0,1,6.807,0H48.084a2.223,2.223,0,0,1,2.221,2.221V4.588h8.1A4.521,4.521,0,0,1,62.918,9.1v1.147a1.075,1.075,0,0,1-.851,1.051l1.778,7.113a5.671,5.671,0,0,1,4.805,5.6v11.47a1.074,1.074,0,0,1-1.074,1.075H64.062c0,.024,0,.048,0,.072a6.808,6.808,0,1,1-13.616,0Zm2.15,0a4.658,4.658,0,1,0,4.657-4.66A4.663,4.663,0,0,0,52.6,36.633Zm-37.837,0a4.658,4.658,0,1,0,4.658-4.66A4.664,4.664,0,0,0,14.762,36.633Zm49.3-10.323a1.219,1.219,0,0,0,1.218,1.219H66.5V25.091H64.065ZM50.305,18.352H61.613l-1.755-7.027H50.305Zm0-9.177H60.768V9.1A2.368,2.368,0,0,0,58.4,6.738h-8.1ZM55.035,36.63a2.219,2.219,0,1,1,2.219,2.218A2.219,2.219,0,0,1,55.035,36.63Zm-37.835,0a2.218,2.218,0,1,1,2.218,2.218A2.218,2.218,0,0,1,17.2,36.63Zm11.393-4.657a1.075,1.075,0,1,1,0-2.15H44.645a1.075,1.075,0,0,1,0,2.15ZM3.368,27.385a1.075,1.075,0,1,1,0-2.15H17.127a1.075,1.075,0,0,1,0,2.15Zm22.171-4.9-5.733-5.735a1.075,1.075,0,0,1,1.52-1.52L26.3,20.2l9.559-9.563a1.075,1.075,0,1,1,1.52,1.52L27.059,22.482a1.074,1.074,0,0,1-1.519,0Z" fill="#033362"/>
</svg>
