<svg id="Group_75" data-name="Group 75" xmlns="http://www.w3.org/2000/svg" width="20.047" height="16.567" viewBox="0 0 20.047 16.567">
  <path id="Path_9" data-name="Path 9" d="M-681.884,722.61c0,1.251,0,2.456,0,3.66q0,2.39,0,4.78c0,.382-.3.635-.757.635h-12.8c-.458,0-.765-.251-.766-.628q0-3.284,0-6.567a.6.6,0,0,1,.473-.6.739.739,0,0,1,.781.182.74.74,0,0,1,.169.432c.011,1.907.007,3.814.007,5.72v.24h11.446c0-.054.009-.114.009-.174q0-4.347,0-8.694a.407.407,0,0,0-.166-.344q-2.7-2.263-5.4-4.535c-.052-.044-.106-.084-.175-.139l-1.189,1-7.561,6.36a.82.82,0,0,1-.969.1.542.542,0,0,1-.211-.77.757.757,0,0,1,.149-.163q4.617-3.887,9.236-7.771a.8.8,0,0,1,1.116.009l9.221,7.758a.535.535,0,0,1,.03.872.805.805,0,0,1-1.037-.019c-.476-.4-.949-.8-1.424-1.2C-681.74,722.719-681.794,722.679-681.884,722.61Z" transform="translate(699.065 -715.118)" fill="#a5b4cb"/>
</svg>
