<svg id="Iconly_Light-Outline_Message" data-name="Iconly/Light-Outline/Message" xmlns="http://www.w3.org/2000/svg" width="21.5" height="19.5" viewBox="0 0 21.5 19.5">
  <g id="Message" transform="translate(0)">
    <path id="Combined-Shape" d="M15.659,1C18.989,1,21.5,3.717,21.5,7.32v6.868a6.541,6.541,0,0,1-1.837,4.692,5.529,5.529,0,0,1-3.988,1.62H5.822a5.524,5.524,0,0,1-3.985-1.62A6.541,6.541,0,0,1,0,14.188V7.32C0,3.717,2.511,1,5.841,1Zm0,1.5H5.841C3.326,2.5,1.5,4.527,1.5,7.32v6.868a5.053,5.053,0,0,0,1.4,3.629A4.05,4.05,0,0,0,5.825,19h9.834s.01,0,.016,0A4.049,4.049,0,0,0,18.6,17.817,5.049,5.049,0,0,0,20,14.188V7.32C20,4.527,18.174,2.5,15.659,2.5Zm1.576,4.629a.751.751,0,0,1-.109,1.055L12.682,11.8a3.042,3.042,0,0,1-3.8.006L4.4,8.186a.75.75,0,1,1,.941-1.168L9.82,10.63a1.544,1.544,0,0,0,1.923,0L16.179,7.02A.749.749,0,0,1,17.235,7.129Z" transform="translate(0 -1)" fill="#a5b4cb" fill-rule="evenodd"/>
  </g>
</svg>
