<svg id="Layer_1" xmlns="http://www.w3.org/2000/svg" width="18.832" height="18.832" viewBox="0 0 18.832 18.832">
  <path id="Path_62261" data-name="Path 62261" d="M4.139,5.708H1V17.87a1.964,1.964,0,0,0,1.962,1.962H17.87a1.964,1.964,0,0,0,1.962-1.962V1H4.139ZM1.785,17.87V6.493H4.139V17.87a1.177,1.177,0,0,1-2.354,0ZM4.923,1.785H19.047V17.87a1.178,1.178,0,0,1-1.177,1.177H4.53c.012-.015.02-.033.031-.049.022-.032.042-.065.062-.1a1.917,1.917,0,0,0,.235-.556c.009-.037.02-.072.027-.11a1.915,1.915,0,0,0,.037-.364Z" transform="translate(-1 -1)" fill="#a5b4cb"/>
  <path id="Path_62262" data-name="Path 62262" d="M15,8H25.985v.785H15Z" transform="translate(-9.507 -5.254)" fill="#a5b4cb"/>
  <path id="Path_62263" data-name="Path 62263" d="M19,13h7.847v.785H19Z" transform="translate(-11.938 -8.292)" fill="#a5b4cb"/>
  <path id="Path_62264" data-name="Path 62264" d="M31,21h4.708v.785H31Z" transform="translate(-19.23 -13.153)" fill="#a5b4cb"/>
  <path id="Path_62265" data-name="Path 62265" d="M31,26h4.708v.785H31Z" transform="translate(-19.23 -16.192)" fill="#a5b4cb"/>
  <path id="Path_62266" data-name="Path 62266" d="M19.708,21H15v4.708h4.708Zm-.785,3.923H15.785V21.785h3.139Z" transform="translate(-9.507 -13.153)" fill="#a5b4cb"/>
  <path id="Path_62267" data-name="Path 62267" d="M31,31h4.708v.785H31Z" transform="translate(-19.23 -19.23)" fill="#a5b4cb"/>
  <path id="Path_62268" data-name="Path 62268" d="M15,36h4.708v.785H15Z" transform="translate(-9.507 -22.268)" fill="#a5b4cb"/>
  <path id="Path_62269" data-name="Path 62269" d="M31,36h4.708v.785H31Z" transform="translate(-19.23 -22.268)" fill="#a5b4cb"/>
  <path id="Path_62270" data-name="Path 62270" d="M15,41h4.708v.785H15Z" transform="translate(-9.507 -25.307)" fill="#a5b4cb"/>
  <path id="Path_62271" data-name="Path 62271" d="M31,41h4.708v.785H31Z" transform="translate(-19.23 -25.307)" fill="#a5b4cb"/>
</svg>
