<svg id="Iconly_Light-Outline_Discount" data-name="Iconly/Light-Outline/Discount" xmlns="http://www.w3.org/2000/svg" width="26.062" height="26.06" viewBox="0 0 26.062 26.06">
  <g id="Discount">
    <path id="Combined-Shape" d="M15.8,1.141l.952.952a1.955,1.955,0,0,0,1.385.569h1.339A3.928,3.928,0,0,1,23.4,6.587V7.925a1.959,1.959,0,0,0,.572,1.388l.935.937a3.924,3.924,0,0,1,.017,5.548l-.955.952a1.952,1.952,0,0,0-.569,1.384v1.341A3.928,3.928,0,0,1,19.474,23.4H18.131a1.98,1.98,0,0,0-1.386.572l-.935.935a3.927,3.927,0,0,1-5.545.02l-.031-.033-.925-.924A1.961,1.961,0,0,0,7.923,23.4H6.586a3.927,3.927,0,0,1-3.923-3.923V18.13a1.954,1.954,0,0,0-.572-1.385l-.937-.935a3.929,3.929,0,0,1-.046-5.516l.035-.035h0l.949-.951a1.958,1.958,0,0,0,.571-1.385V6.587A3.929,3.929,0,0,1,6.585,2.662H7.927a1.968,1.968,0,0,0,1.389-.573l.932-.934A3.928,3.928,0,0,1,15.8,1.141ZM11.632,2.535l-.937.939A3.914,3.914,0,0,1,7.927,4.617H6.586a1.973,1.973,0,0,0-1.969,1.97V7.922a3.9,3.9,0,0,1-1.14,2.765l-.925.926c-.009.01-.018.018-.027.027a1.971,1.971,0,0,0,.009,2.784l.941.941A3.89,3.89,0,0,1,4.617,18.13v1.343a1.97,1.97,0,0,0,1.969,1.969H7.924a3.9,3.9,0,0,1,2.765,1.143l.939.937.026.029h0a1.97,1.97,0,0,0,2.77-.026l.941-.938a3.942,3.942,0,0,1,2.766-1.144h1.342a1.971,1.971,0,0,0,1.97-1.969V18.133a3.884,3.884,0,0,1,1.141-2.763l.938-.939a1.968,1.968,0,0,0,0-2.8l-.939-.941a3.9,3.9,0,0,1-1.143-2.767V6.587a1.972,1.972,0,0,0-1.97-1.97H18.133A3.9,3.9,0,0,1,15.37,3.478l-.941-.942A1.978,1.978,0,0,0,11.632,2.535Zm4.659,12.447a1.3,1.3,0,1,1-.012,0Zm.779-5.992a.977.977,0,0,1,0,1.382l-6.7,6.7A.977.977,0,0,1,8.99,15.689l6.7-6.7A.977.977,0,0,1,17.069,8.991ZM9.776,8.468a1.3,1.3,0,1,1-.012,0Z" transform="translate(0 0)" fill="#a5b4cb" fill-rule="evenodd"/>
  </g>
</svg>
